<svg width="1000" height="431" viewBox="0 0 1000 431" fill="none" xmlns="http://www.w3.org/2000/svg">
<path d="M229.991 346.707C229.991 410.497 165.696 430.532 110.637 430.532C70.516 430.532 31.9593 419.228 10.8642 405.854C-3.0142 372.395 -4.27587 331.264 17.0211 331.264C22.6734 331.264 24.2379 333.333 27.1145 341.358C44.1218 386.778 81.114 408.226 120.73 408.226C154.19 408.226 170.137 391.774 170.137 366.541C170.137 331.567 133.599 320.767 92.469 307.898C43.2639 292.708 0.0642755 264.396 0.0642755 212.415C-0.510846 199.893 2.7847 187.498 9.50276 176.915C16.2208 166.332 26.0353 158.076 37.6116 153.268C15.2043 136.816 0.0642755 114.711 0.0642755 83.8254C0.0642755 30.8352 46.8975 0 109.123 0C145.661 0 184.218 9.79056 205.313 23.1643C218.687 56.5733 220.201 97.7542 198.601 97.7542C192.948 97.7542 191.434 95.6851 188.507 87.9637C173.065 43.7043 137.536 22.3568 102.058 22.3568C66.5795 22.3568 54.7198 43.9566 54.7198 62.7303C54.7198 95.6851 82.0224 108.504 121.588 120.868C167.917 135.251 230.143 155.337 230.143 218.622C230.143 250.517 214.195 268.484 191.031 278.779C213.539 292.708 229.991 313.752 229.991 346.707ZM121.437 248.953C134.306 253.091 148.74 257.684 162.618 263.386C167.91 256.06 170.626 247.186 170.339 238.153C170.339 203.179 133.801 192.38 92.6709 179.51C82.0754 176.409 71.7468 172.46 61.7852 167.701C57.0201 174.461 54.496 182.545 54.5684 190.815C54.5684 223.77 81.871 236.639 121.437 248.953Z" fill="#F1F2F2"/>
<path d="M395.219 242.998V253.091C387.795 257.501 379.275 259.723 370.642 259.5C354.594 259.5 345.409 251.022 345.409 235.226V161.494C345.409 139.844 336.375 125.814 318.51 125.814C299.787 125.814 288.23 139.844 288.23 161.494V209.942C288.23 222.508 293.276 226.596 306.65 227.757V237.85H234.382V227.757C248.109 226.596 253.105 222.71 253.105 209.942V79.7881C253.105 66.3639 247.554 62.8313 234.382 63.992V53.8986L275.31 46.4295C283.789 44.966 288.179 48.8015 288.179 56.5229V112.844C288.179 123.391 292.873 126.016 296.658 121.625C301.653 115.552 307.956 110.687 315.095 107.392C322.235 104.097 330.027 102.459 337.889 102.599C359.237 102.599 380.332 113.147 380.332 154.075V232.147C380.332 241.534 385.278 245.016 395.219 242.998Z" fill="#F1F2F2"/>
<path d="M413.892 187.989V137.118C413.892 123.644 408.341 120.161 395.169 121.322V111.229L436.148 103.608C444.627 102.145 449.017 105.98 449.017 113.702V180.368C449.017 202.019 458.051 216.654 475.916 216.654C494.639 216.654 506.196 202.019 506.196 180.368V137.118C506.196 123.644 500.594 120.161 487.473 121.322V111.229L528.401 103.608C536.88 102.145 541.27 105.98 541.27 113.702V211.961C541.27 221.6 546.317 225.082 556.41 223.063V233.157C549.094 237.56 540.673 239.783 532.136 239.566C514.573 239.566 509.88 229.473 507.861 221.448C507.256 218.521 506.398 216.402 504.329 216.402C502.26 216.402 501.704 217.562 500.241 219.278C495.129 225.842 488.548 231.115 481.028 234.673C473.508 238.232 465.257 239.977 456.94 239.768C435.038 239.465 413.892 228.968 413.892 187.989Z" fill="#F1F2F2"/>
<path d="M729.815 220.439C725.425 223.633 720.101 225.283 714.674 225.133C702.714 225.133 700.039 214.03 700.039 200.858V125.713C700.039 119.556 702.714 117.79 707.962 117.79H733.7V105.98H707.962C702.916 105.98 700.039 104.214 700.039 98.0572V74.2368H686.413C686.161 74.2368 681.821 86.8535 681.366 88.0647C677.96 94.7522 672.493 100.167 665.772 103.508C658.464 107.016 650.462 108.844 642.355 108.857C635.1 108.883 627.855 108.275 620.705 107.04C618.3 107.071 615.973 106.187 614.195 104.567C612.699 102.677 611.93 100.314 612.025 97.9058V74.2368H598.298C593.251 94.9787 582.502 105.829 557.067 109.564V118.042H569.027C574.629 118.042 576.95 119.808 576.95 125.965V194.449C576.95 225.738 590.677 239.162 617.021 239.162C627.819 239.797 638.462 236.357 646.847 229.523L641.8 220.439C637.411 223.633 632.087 225.283 626.66 225.133C614.649 225.133 612.025 214.03 612.025 200.858V125.713C612.025 119.556 614.649 117.79 619.948 117.79H657.243C662.845 117.79 665.166 119.556 665.166 125.713V194.449C665.166 225.738 678.893 239.162 705.237 239.162C716.035 239.797 726.678 236.357 735.063 229.523L729.815 220.439Z" fill="#F1F2F2"/>
<path d="M855.023 204.088L862.038 210.245C856.486 221.045 837.763 239.465 805.313 239.465C768.724 239.465 734.659 216.351 734.659 171.89C734.659 126.016 770.945 103.205 807.483 103.205C838.772 103.205 863.35 120.161 863.35 146.202C863.35 169.266 844.021 172.496 812.883 173.656L780.736 174.817C775.437 175.12 774.276 179.51 776.042 186.223C779.015 196.005 785.12 204.539 793.418 210.512C801.716 216.485 811.747 219.565 821.967 219.278C828.288 219.563 834.586 218.332 840.336 215.69C846.086 213.048 851.121 209.07 855.023 204.088ZM772.207 152.309C771.904 161.09 774.831 164.623 782.3 164.623H797.793C823.027 164.623 830.546 156.699 830.546 143.275C830.76 139.539 830.206 135.798 828.918 132.284C827.631 128.769 825.637 125.556 823.06 122.842C820.483 120.128 817.377 117.97 813.935 116.502C810.492 115.034 806.785 114.287 803.042 114.307C783.36 114.307 773.721 130.103 772.207 152.309Z" fill="#F1F2F2"/>
<path d="M871.071 227.757C884.849 226.596 889.794 222.71 889.794 209.942V137.118C889.794 123.644 884.243 120.162 871.071 121.322V111.229L912.05 103.608C920.529 102.145 924.919 105.98 924.919 112.693C924.919 123.24 928.704 124.956 932.489 120.565C937.051 115.095 942.72 110.653 949.121 107.53C955.523 104.408 962.514 102.675 969.633 102.448C988.659 102.448 999.913 115.317 999.913 129.347C999.913 142.216 991.99 149.533 980.887 149.533C971.248 149.533 963.93 143.982 963.93 134.898C964.114 133.158 963.93 131.4 963.39 129.736C962.85 128.072 961.965 126.541 960.794 125.241C959.623 123.942 958.192 122.903 956.593 122.193C954.995 121.483 953.264 121.118 951.515 121.12C937.183 121.12 924.919 136.917 924.919 165.279V209.942C924.919 222.508 929.966 226.596 944.803 227.757V237.85H871.071V227.757Z" fill="#F1F2F2"/>
<path d="M254.266 370.578V301.842C254.266 295.685 251.944 293.919 246.393 293.919H234.382V285.441C259.615 281.958 270.667 271.108 275.613 250.114H289.34V274.035C289.34 280.192 292.015 281.958 297.263 281.958H323.052V293.919H297.314C292.267 293.919 289.391 295.685 289.391 301.842V376.987C289.391 390.159 292.065 401.262 304.026 401.262C309.45 401.394 314.768 399.745 319.166 396.568L324.213 405.652C315.833 412.495 305.186 415.936 294.387 415.292C267.993 415.292 254.266 401.868 254.266 370.578Z" fill="#F1F2F2"/>
<path d="M333.145 403.735C346.923 402.574 351.868 398.688 351.868 385.92V313.248C351.868 299.773 346.317 296.291 333.145 297.451V287.661L374.124 280.04C382.603 278.577 386.993 282.412 386.993 290.134V386.021C386.993 398.587 392.04 402.675 405.414 403.835V413.929H333.145V403.735Z" fill="#F1F2F2"/>
<path d="M525.777 391.017V337.825C525.777 316.175 516.693 301.539 498.828 301.539C480.155 301.539 468.548 316.175 468.548 337.825V386.071C468.548 398.638 473.594 402.725 486.968 403.886V413.979H414.901V403.735C428.679 402.574 433.625 398.688 433.625 385.92V313.248C433.625 299.773 428.073 296.291 414.901 297.452V287.661L455.881 280.04C464.359 278.577 468.75 282.412 468.75 289.125C468.75 299.622 473.393 302.296 477.228 297.906C482.216 291.824 488.517 286.953 495.659 283.657C502.8 280.362 510.596 278.729 518.459 278.88C539.807 278.88 560.852 289.427 560.852 330.356V387.787C560.852 397.477 565.898 400.959 575.739 398.94V409.034C568.338 413.455 559.831 415.678 551.212 415.443C535.013 415.292 525.777 406.813 525.777 391.017Z" fill="#F1F2F2"/>
<path d="M580.433 348.221C580.433 302.347 618.737 279.536 654.72 279.536C686.312 279.536 707.66 298.208 707.66 316.074C707.66 325.41 703.269 334.494 691.005 334.494C688.689 334.616 686.371 334.271 684.192 333.477C682.012 332.684 680.014 331.459 678.318 329.876C676.622 328.293 675.263 326.385 674.321 324.265C673.38 322.145 672.875 319.857 672.837 317.537C672.837 306.132 670.213 290.638 650.329 290.638C628.982 290.638 617.879 309.362 617.879 335.655C617.879 372.798 640.084 395.609 670.516 395.609C676.494 395.839 682.434 394.575 687.801 391.932C693.167 389.288 697.79 385.349 701.25 380.469L708.517 386.626C702.966 397.426 685.151 415.847 653.559 415.847C616.264 415.594 580.433 392.48 580.433 348.221Z" fill="#F1F2F2"/>
<path d="M733.852 370.578V301.842C733.852 295.685 731.53 293.919 725.979 293.919H713.968V285.441C739.201 281.958 750.254 271.108 755.199 250.114H768.926V274.035C768.926 280.192 771.601 281.958 776.85 281.958H802.487V293.919H776.749C771.702 293.919 768.825 295.685 768.825 301.842V376.987C768.825 390.159 771.5 401.262 783.461 401.262C788.885 401.394 794.202 399.745 798.601 396.568L803.647 405.652C795.268 412.495 784.621 415.936 773.822 415.292C747.579 415.292 733.852 401.868 733.852 370.578Z" fill="#F1F2F2"/>
</svg>
