<svg width="154" height="288" viewBox="0 0 154 288" fill="none" xmlns="http://www.w3.org/2000/svg">
<path d="M0 56.0216C0 13.491 42.969 0 79.7658 0C106.748 0 132.347 7.55498 146.445 16.4928C155.72 38.8542 156.564 66.3422 142.331 66.3422C138.553 66.3422 137.507 64.9594 135.585 59.5967C124.253 29.2418 99.4964 14.9076 73.0203 14.9076C50.6589 14.9076 40.0009 25.9365 40.0009 42.7666C40.0009 66.1398 64.4197 73.3575 91.9077 81.9581C124.927 92.2787 153.798 111.166 153.798 146.041C154.187 154.41 151.987 162.696 147.496 169.769C143.006 176.843 136.444 182.36 128.705 185.569C143.815 196.564 153.798 211.337 153.798 231.978C153.798 267.392 122.532 288 80.9125 288C56.5275 288 30.7258 281.491 16.6277 272.519C7.55498 249.922 6.54315 222.602 20.9786 222.602C24.7561 222.602 25.7679 223.951 27.7241 229.112C38.011 258.691 61.7552 273.126 85.4658 273.126C109.176 273.126 117.102 258.691 117.102 246.144C117.102 224.154 98.8556 215.553 72.4132 207.29C41.5861 197.677 0 184.254 0 141.993C0 120.677 10.6579 108.637 26.1389 101.756C10.9952 92.1438 0 78.0457 0 56.0216ZM72.5481 121.419C63.9475 118.654 54.3014 115.585 45.0264 111.807C41.4777 116.697 39.6617 122.632 39.866 128.671C39.866 152.044 64.2848 159.262 91.7728 167.862C98.8539 169.935 105.757 172.574 112.414 175.755C115.603 171.239 117.29 165.835 117.237 160.307C117.237 138.283 98.9905 129.615 72.5481 121.419Z" fill="white"/>
</svg>
